# xmcd
#
# Track frame offsets:
#	150
#	12820
#	25841
#	38864
#	52127
#	66048
#	78732
#	94020
#	106152
#	120903
#	135643
#	149512
#	162667
#	176110
#	190711
#	203524
#	216456
#	227852
#	240477
#	254304
#	267827
#	281008
#	294409
#	308454
#	322958
#	333839
#
# Disc length: 4648 seconds
#
# Revision: 1
# Processed by: cddbd v1.5.2PL0 Copyright (c) Steve Scherf et al.
# Submitted via: audiograbber 1.83.01
#
DISCID=7312261a
DTITLE=Big Bill Broonzy - These Blues Are Doggin' Me - 26 Original Mono Recordi
DTITLE=ngs 1930-1951
DYEAR=2006
DGENRE=Blues
TTITLE0=I Can't Be Satisfied
TTITLE1=Too Too Train Blues
TTITLE2=How You Want It Done
TTITLE3=Bull Cow Blues
TTITLE4=Worrying You Off My Mind, No. 1
TTITLE5=Long Tall Mama
TTITLE6=Friendless Blues
TTITLE7=Mississippi  River Blues
TTITLE8=See See Rider
TTITLE9=Good Jelly
TTITLE10=The Sun Gonna Shine In My Door Someday
TTITLE11=Keep Your Hands Off Her
TTITLE12=Big Bill Blues (These Blues Are Doggin' Me)
TTITLE13=Southern Flood Blues
TTITLE14=Just A Dream On My Mind, No. 2
TTITLE15=When I Been Drinking
TTITLE16=All By Myself
TTITLE17=I Feel So Good
TTITLE18=Key To The Highway
TTITLE19=Wee Wee Hours Blues
TTITLE20=I'm Goona Move To The Outskirts Of Town
TTITLE21=Tell Me, Baby
TTITLE22=Big Bill's Boogie
TTITLE23=Summertime Blues
TTITLE24=Trouble In Mind
TTITLE25=John Henry
EXTD=
EXTT0=
EXTT1=
EXTT2=
EXTT3=
EXTT4=
EXTT5=
EXTT6=
EXTT7=
EXTT8=
EXTT9=
EXTT10=
EXTT11=
EXTT12=
EXTT13=
EXTT14=
EXTT15=
EXTT16=
EXTT17=
EXTT18=
EXTT19=
EXTT20=
EXTT21=
EXTT22=
EXTT23=
EXTT24=
EXTT25=
PLAYORDER=
